<svg width="2533" height="2533" viewBox="0 0 2533 2533" fill="none" xmlns="http://www.w3.org/2000/svg">
<rect width="2533" height="2533" rx="300" fill="white"/>
<path d="M1361.58 615.368C911.375 638.715 142.957 1912.1 1093.81 2017.14C2044.67 2122.18 1361.58 615.368 1361.58 615.368Z" fill="#5DD469"/>
<path fill-rule="evenodd" clip-rule="evenodd" d="M1657.78 1683.56C1590.23 1787.42 1468.94 1862.98 1283.97 1914.04C1420.71 2067.44 1655.22 2117.52 1948.65 2057.47L1976.01 2191.15C1640.07 2259.89 1328.05 2203.43 1150.32 1965.92C1140.45 1952.72 1131.05 1939.06 1122.15 1924.91C801.442 1880.02 610.557 1603.56 627.06 1286.81C643.877 964.042 871.738 605.307 1367.7 373.727C1367.81 372.464 1367.93 371.201 1368.05 369.938L1374.53 370.556L1374.68 370.486L1374.72 370.574L1503.88 382.91C1489.66 531.839 1521.16 684.001 1566.19 836.813C1582.92 893.578 1601.07 949.036 1619.15 1004.28L1619.15 1004.29C1625.44 1023.5 1631.71 1042.68 1637.92 1061.88C1661.67 1135.35 1684.19 1208.58 1699.71 1279.05C1730.41 1418.36 1737.22 1561.4 1657.78 1683.56ZM1157.3 1634.58C1168.11 1694.28 1184.64 1747.05 1205.9 1793.29C1401.55 1746.11 1497.76 1679.34 1543.4 1609.16C1592.21 1534.11 1594.86 1437.29 1566.46 1308.41C1552.44 1244.78 1531.68 1176.84 1508.08 1103.84C1502.21 1085.67 1496.15 1067.15 1490 1048.34L1489.98 1048.28L1489.97 1048.27C1471.73 992.519 1452.67 934.27 1435.31 875.388C1402.74 764.863 1374.57 647.137 1366.39 526.248C947.608 740.876 776.315 1044.54 763.322 1293.91C751.726 1516.49 863.109 1700.18 1049.67 1767.32C975.373 1535.04 994.024 1217.2 1124.77 813.265L1254.59 855.284C1170.28 1115.75 1137.85 1327.81 1143.28 1497.26C1164.73 1499.85 1173.23 1496.09 1176.14 1494.49C1181.77 1491.39 1190.65 1483.12 1204.79 1453.6C1209.84 1443.04 1215.22 1430.16 1221.33 1415.55C1245.71 1357.25 1281.63 1271.34 1354.1 1195.06L1453.02 1289.04C1399.64 1345.23 1376.22 1400.61 1352.43 1456.87L1352.43 1456.87C1344.64 1475.3 1336.8 1493.83 1327.86 1512.51C1311.28 1547.16 1286.97 1589.23 1241.95 1614.02C1215.86 1628.39 1187.48 1634.54 1157.3 1634.58Z" fill="#014335"/>
</svg>
