<svg width="42" height="42" viewBox="0 0 42 42" fill="none" xmlns="http://www.w3.org/2000/svg">
<rect x="3.34473" y="3" width="35.3448" height="35.3448" rx="17.6724" fill="#FEF2C7"/>
<path d="M24.8447 19.6552C25.2614 19.6552 25.6156 19.5093 25.9072 19.2177C26.1989 18.926 26.3447 18.5718 26.3447 18.1552C26.3447 17.7385 26.1989 17.3843 25.9072 17.0927C25.6156 16.801 25.2614 16.6552 24.8447 16.6552C24.4281 16.6552 24.0739 16.801 23.7822 17.0927C23.4906 17.3843 23.3447 17.7385 23.3447 18.1552C23.3447 18.5718 23.4906 18.926 23.7822 19.2177C24.0739 19.5093 24.4281 19.6552 24.8447 19.6552ZM17.8447 19.6552C18.2614 19.6552 18.6156 19.5093 18.9072 19.2177C19.1989 18.926 19.3447 18.5718 19.3447 18.1552C19.3447 17.7385 19.1989 17.3843 18.9072 17.0927C18.6156 16.801 18.2614 16.6552 17.8447 16.6552C17.4281 16.6552 17.0739 16.801 16.7822 17.0927C16.4906 17.3843 16.3447 17.7385 16.3447 18.1552C16.3447 18.5718 16.4906 18.926 16.7822 19.2177C17.0739 19.5093 17.4281 19.6552 17.8447 19.6552ZM21.3447 26.1552C22.4781 26.1552 23.5072 25.8343 24.4322 25.1927C25.3572 24.551 26.0281 23.7052 26.4447 22.6552H16.2447C16.6614 23.7052 17.3322 24.551 18.2572 25.1927C19.1822 25.8343 20.2114 26.1552 21.3447 26.1552ZM21.3447 30.6552C19.9614 30.6552 18.6614 30.3927 17.4447 29.8677C16.2281 29.3427 15.1697 28.6302 14.2697 27.7302C13.3697 26.8302 12.6572 25.7718 12.1322 24.5552C11.6072 23.3385 11.3447 22.0385 11.3447 20.6552C11.3447 19.2718 11.6072 17.9718 12.1322 16.7552C12.6572 15.5385 13.3697 14.4802 14.2697 13.5802C15.1697 12.6802 16.2281 11.9677 17.4447 11.4427C18.6614 10.9177 19.9614 10.6552 21.3447 10.6552C22.7281 10.6552 24.0281 10.9177 25.2447 11.4427C26.4614 11.9677 27.5197 12.6802 28.4197 13.5802C29.3197 14.4802 30.0322 15.5385 30.5572 16.7552C31.0822 17.9718 31.3447 19.2718 31.3447 20.6552C31.3447 22.0385 31.0822 23.3385 30.5572 24.5552C30.0322 25.7718 29.3197 26.8302 28.4197 27.7302C27.5197 28.6302 26.4614 29.3427 25.2447 29.8677C24.0281 30.3927 22.7281 30.6552 21.3447 30.6552ZM21.3447 28.6552C23.5781 28.6552 25.4697 27.8802 27.0197 26.3302C28.5697 24.7802 29.3447 22.8885 29.3447 20.6552C29.3447 18.4218 28.5697 16.5302 27.0197 14.9802C25.4697 13.4302 23.5781 12.6552 21.3447 12.6552C19.1114 12.6552 17.2197 13.4302 15.6697 14.9802C14.1197 16.5302 13.3447 18.4218 13.3447 20.6552C13.3447 22.8885 14.1197 24.7802 15.6697 26.3302C17.2197 27.8802 19.1114 28.6552 21.3447 28.6552Z" fill="#DCB903"/>
<rect x="3.34473" y="3" width="35.3448" height="35.3448" rx="17.6724" stroke="#FFFBEB" stroke-width="5.8908"/>
</svg>
