<svg width="42" height="42" viewBox="0 0 42 42" fill="none" xmlns="http://www.w3.org/2000/svg">
<rect x="3" y="3" width="35.3448" height="35.3448" rx="17.6724" fill="#CCE9DA"/>
<path d="M21 26.5C22.1333 26.5 23.1625 26.1792 24.0875 25.5375C25.0125 24.8958 25.6833 24.05 26.1 23H15.9C16.3167 24.05 16.9875 24.8958 17.9125 25.5375C18.8375 26.1792 19.8667 26.5 21 26.5ZM16.8 20L17.9 18.95L18.95 20L20 18.95L17.9 16.8L15.75 18.95L16.8 20ZM23.05 20L24.1 18.95L25.2 20L26.25 18.95L24.1 16.8L22 18.95L23.05 20ZM21 31C19.6167 31 18.3167 30.7375 17.1 30.2125C15.8833 29.6875 14.825 28.975 13.925 28.075C13.025 27.175 12.3125 26.1167 11.7875 24.9C11.2625 23.6833 11 22.3833 11 21C11 19.6167 11.2625 18.3167 11.7875 17.1C12.3125 15.8833 13.025 14.825 13.925 13.925C14.825 13.025 15.8833 12.3125 17.1 11.7875C18.3167 11.2625 19.6167 11 21 11C22.3833 11 23.6833 11.2625 24.9 11.7875C26.1167 12.3125 27.175 13.025 28.075 13.925C28.975 14.825 29.6875 15.8833 30.2125 17.1C30.7375 18.3167 31 19.6167 31 21C31 22.3833 30.7375 23.6833 30.2125 24.9C29.6875 26.1167 28.975 27.175 28.075 28.075C27.175 28.975 26.1167 29.6875 24.9 30.2125C23.6833 30.7375 22.3833 31 21 31ZM21 29C23.2333 29 25.125 28.225 26.675 26.675C28.225 25.125 29 23.2333 29 21C29 18.7667 28.225 16.875 26.675 15.325C25.125 13.775 23.2333 13 21 13C18.7667 13 16.875 13.775 15.325 15.325C13.775 16.875 13 18.7667 13 21C13 23.2333 13.775 25.125 15.325 26.675C16.875 28.225 18.7667 29 21 29Z" fill="#009245"/>
<rect x="3" y="3" width="35.3448" height="35.3448" rx="17.6724" stroke="#EFF8F3" stroke-width="5.8908"/>
</svg>
