<svg width="42" height="42" viewBox="0 0 42 42" fill="none" xmlns="http://www.w3.org/2000/svg">
<rect x="3.03442" y="3" width="35.3448" height="35.3448" rx="17.6724" fill="#FFCFCF"/>
<path d="M24.5344 19.9655C24.9511 19.9655 25.3053 19.8197 25.5969 19.528C25.8886 19.2364 26.0344 18.8822 26.0344 18.4655C26.0344 18.0489 25.8886 17.6947 25.5969 17.403C25.3053 17.1114 24.9511 16.9655 24.5344 16.9655C24.1178 16.9655 23.7636 17.1114 23.4719 17.403C23.1803 17.6947 23.0344 18.0489 23.0344 18.4655C23.0344 18.8822 23.1803 19.2364 23.4719 19.528C23.7636 19.8197 24.1178 19.9655 24.5344 19.9655ZM17.5344 19.9655C17.9511 19.9655 18.3053 19.8197 18.5969 19.528C18.8886 19.2364 19.0344 18.8822 19.0344 18.4655C19.0344 18.0489 18.8886 17.6947 18.5969 17.403C18.3053 17.1114 17.9511 16.9655 17.5344 16.9655C17.1178 16.9655 16.7636 17.1114 16.4719 17.403C16.1803 17.6947 16.0344 18.0489 16.0344 18.4655C16.0344 18.8822 16.1803 19.2364 16.4719 19.528C16.7636 19.8197 17.1178 19.9655 17.5344 19.9655ZM21.0344 22.4655C19.9011 22.4655 18.8719 22.7864 17.9469 23.428C17.0219 24.0697 16.3511 24.9155 15.9344 25.9655H26.1344C25.7178 24.9155 25.0469 24.0697 24.1219 23.428C23.1969 22.7864 22.1678 22.4655 21.0344 22.4655ZM21.0344 30.9655C19.6511 30.9655 18.3511 30.703 17.1344 30.178C15.9178 29.653 14.8594 28.9405 13.9594 28.0405C13.0594 27.1405 12.3469 26.0822 11.8219 24.8655C11.2969 23.6489 11.0344 22.3489 11.0344 20.9655C11.0344 19.5822 11.2969 18.2822 11.8219 17.0655C12.3469 15.8489 13.0594 14.7905 13.9594 13.8905C14.8594 12.9905 15.9178 12.278 17.1344 11.753C18.3511 11.228 19.6511 10.9655 21.0344 10.9655C22.4178 10.9655 23.7178 11.228 24.9344 11.753C26.1511 12.278 27.2094 12.9905 28.1094 13.8905C29.0094 14.7905 29.7219 15.8489 30.2469 17.0655C30.7719 18.2822 31.0344 19.5822 31.0344 20.9655C31.0344 22.3489 30.7719 23.6489 30.2469 24.8655C29.7219 26.0822 29.0094 27.1405 28.1094 28.0405C27.2094 28.9405 26.1511 29.653 24.9344 30.178C23.7178 30.703 22.4178 30.9655 21.0344 30.9655ZM21.0344 28.9655C23.2678 28.9655 25.1594 28.1905 26.7094 26.6405C28.2594 25.0905 29.0344 23.1989 29.0344 20.9655C29.0344 18.7322 28.2594 16.8405 26.7094 15.2905C25.1594 13.7405 23.2678 12.9655 21.0344 12.9655C18.8011 12.9655 16.9094 13.7405 15.3594 15.2905C13.8094 16.8405 13.0344 18.7322 13.0344 20.9655C13.0344 23.1989 13.8094 25.0905 15.3594 26.6405C16.9094 28.1905 18.8011 28.9655 21.0344 28.9655Z" fill="#E40000"/>
<rect x="3.03442" y="3" width="35.3448" height="35.3448" rx="17.6724" stroke="#FFF0F0" stroke-width="5.8908"/>
</svg>
