<svg width="42" height="42" viewBox="0 0 42 42" fill="none" xmlns="http://www.w3.org/2000/svg">
<rect x="3.6897" y="3" width="35.3448" height="35.3448" rx="17.6724" fill="#FEF0C7"/>
<path d="M25.1897 19.3104C25.6064 19.3104 25.9605 19.1645 26.2522 18.8729C26.5439 18.5812 26.6897 18.227 26.6897 17.8104C26.6897 17.3937 26.5439 17.0395 26.2522 16.7479C25.9605 16.4562 25.6064 16.3104 25.1897 16.3104C24.773 16.3104 24.4189 16.4562 24.1272 16.7479C23.8355 17.0395 23.6897 17.3937 23.6897 17.8104C23.6897 18.227 23.8355 18.5812 24.1272 18.8729C24.4189 19.1645 24.773 19.3104 25.1897 19.3104ZM18.1897 19.3104C18.6064 19.3104 18.9605 19.1645 19.2522 18.8729C19.5439 18.5812 19.6897 18.227 19.6897 17.8104C19.6897 17.3937 19.5439 17.0395 19.2522 16.7479C18.9605 16.4562 18.6064 16.3104 18.1897 16.3104C17.773 16.3104 17.4189 16.4562 17.1272 16.7479C16.8355 17.0395 16.6897 17.3937 16.6897 17.8104C16.6897 18.227 16.8355 18.5812 17.1272 18.8729C17.4189 19.1645 17.773 19.3104 18.1897 19.3104ZM21.6897 25.8104C22.823 25.8104 23.8522 25.4895 24.7772 24.8479C25.7022 24.2062 26.373 23.3604 26.7897 22.3104H25.1397C24.773 22.927 24.2855 23.4145 23.6772 23.7729C23.0689 24.1312 22.4064 24.3104 21.6897 24.3104C20.973 24.3104 20.3105 24.1312 19.7022 23.7729C19.0939 23.4145 18.6064 22.927 18.2397 22.3104H16.5897C17.0064 23.3604 17.6772 24.2062 18.6022 24.8479C19.5272 25.4895 20.5564 25.8104 21.6897 25.8104ZM21.6897 30.3104C20.3064 30.3104 19.0064 30.0479 17.7897 29.5229C16.573 28.9979 15.5147 28.2854 14.6147 27.3854C13.7147 26.4854 13.0022 25.427 12.4772 24.2104C11.9522 22.9937 11.6897 21.6937 11.6897 20.3104C11.6897 18.927 11.9522 17.627 12.4772 16.4104C13.0022 15.1937 13.7147 14.1354 14.6147 13.2354C15.5147 12.3354 16.573 11.6229 17.7897 11.0979C19.0064 10.5729 20.3064 10.3104 21.6897 10.3104C23.073 10.3104 24.373 10.5729 25.5897 11.0979C26.8064 11.6229 27.8647 12.3354 28.7647 13.2354C29.6647 14.1354 30.3772 15.1937 30.9022 16.4104C31.4272 17.627 31.6897 18.927 31.6897 20.3104C31.6897 21.6937 31.4272 22.9937 30.9022 24.2104C30.3772 25.427 29.6647 26.4854 28.7647 27.3854C27.8647 28.2854 26.8064 28.9979 25.5897 29.5229C24.373 30.0479 23.073 30.3104 21.6897 30.3104ZM21.6897 28.3104C23.923 28.3104 25.8147 27.5354 27.3647 25.9854C28.9147 24.4354 29.6897 22.5437 29.6897 20.3104C29.6897 18.077 28.9147 16.1854 27.3647 14.6354C25.8147 13.0854 23.923 12.3104 21.6897 12.3104C19.4564 12.3104 17.5647 13.0854 16.0147 14.6354C14.4647 16.1854 13.6897 18.077 13.6897 20.3104C13.6897 22.5437 14.4647 24.4354 16.0147 25.9854C17.5647 27.5354 19.4564 28.3104 21.6897 28.3104Z" fill="#DC6803"/>
<rect x="3.6897" y="3" width="35.3448" height="35.3448" rx="17.6724" stroke="#FFFAEB" stroke-width="5.8908"/>
</svg>
